<svg width="16" height="16" viewBox="0 0 16 16" fill="none" xmlns="http://www.w3.org/2000/svg">
<rect width="16" height="16" fill="#FFEEDF"/>
<path d="M2.4694 10.018V9.868L2.6014 9.856C2.7654 9.84 2.8894 9.82 2.9734 9.796C3.0614 9.768 3.1214 9.712 3.1534 9.628C3.1894 9.54 3.2074 9.398 3.2074 9.202V5.902H2.3614C2.1774 5.902 2.0314 5.938 1.9234 6.01C1.8194 6.078 1.7274 6.19 1.6474 6.346C1.5714 6.502 1.4814 6.71 1.3774 6.97L1.2514 6.94L1.4014 6.202L1.4674 5.722L3.1774 5.74H3.7474L5.4634 5.722L5.5294 6.202L5.6794 6.94L5.5474 6.976C5.4554 6.744 5.3694 6.548 5.2894 6.388C5.2134 6.228 5.1234 6.108 5.0194 6.028C4.9154 5.944 4.7774 5.902 4.6054 5.902H3.7174V9.202C3.7174 9.398 3.7334 9.54 3.7654 9.628C3.8014 9.712 3.8634 9.768 3.9514 9.796C4.0394 9.82 4.1634 9.84 4.3234 9.856L4.4554 9.868V10.018L3.4774 10L2.4694 10.018ZM7.37224 9.46V8.272H6.19024V8.032H7.37224V6.844H7.62424V8.032H8.80624V8.272H7.62424V9.46H7.37224ZM9.2059 10.018V9.868L9.2599 9.862C9.3999 9.842 9.5139 9.814 9.6019 9.778C9.6939 9.742 9.7719 9.684 9.8359 9.604C9.9039 9.52 9.9679 9.406 10.0279 9.262L11.4799 5.74H11.6839L13.0999 9.262C13.1799 9.458 13.2659 9.602 13.3579 9.694C13.4499 9.786 13.5759 9.84 13.7359 9.856L13.8559 9.868V10.018L13.1119 10L12.1519 10.018V9.868L12.2719 9.856C12.4119 9.84 12.5119 9.81 12.5719 9.766C12.6319 9.722 12.6619 9.66 12.6619 9.58C12.6619 9.5 12.6339 9.392 12.5779 9.256L12.2659 8.476H10.5739L10.2499 9.256C10.2219 9.328 10.1979 9.394 10.1779 9.454C10.1579 9.51 10.1479 9.56 10.1479 9.604C10.1479 9.68 10.1799 9.738 10.2439 9.778C10.3119 9.818 10.4219 9.844 10.5739 9.856L10.6939 9.868V10.018L9.9319 10L9.2059 10.018ZM10.6519 8.284H12.1939L11.4379 6.382L10.6519 8.284Z" fill="#238857"/>
</svg>
